<?xml version="1.0" standalone="no"?>
<!DOCTYPE svg PUBLIC "-//W3C//DTD SVG 20010904//EN"
 "http://www.w3.org/TR/2001/REC-SVG-20010904/DTD/svg10.dtd">
<svg version="1.0" xmlns="http://www.w3.org/2000/svg"
 width="300.000000pt" height="212.000000pt" viewBox="0 0 300.000000 212.000000"
 preserveAspectRatio="xMidYMid meet">
<metadata>
Created by potrace 1.10, written by Peter Selinger 2001-2011
</metadata>
<g transform="translate(0.000000,212.000000) scale(0.100000,-0.100000)"
fill="#fafafa" stroke="none">
<path d="M543 1470 c-99 -45 -212 -153 -362 -345 -65 -83 -83 -125 -55 -125 7
0 36 30 65 68 64 83 73 93 195 219 138 141 225 182 287 133 34 -27 79 -110
107 -195 91 -283 138 -410 187 -506 30 -60 60 -109 64 -109 5 0 9 -4 9 -9 0
-10 52 -65 123 -128 45 -39 113 -78 153 -88 167 -40 225 -43 360 -19 49 8 102
17 118 19 37 6 86 21 160 52 33 14 68 27 78 28 11 2 51 20 91 39 40 18 90 41
112 50 21 9 42 21 45 25 3 5 34 23 70 41 36 17 88 47 115 65 28 18 84 52 125
76 41 24 77 46 80 50 3 3 64 44 135 91 135 89 182 129 170 147 -11 19 -27 12
-99 -43 -93 -70 -425 -286 -440 -286 -4 0 -26 -13 -49 -28 -41 -28 -242 -130
-322 -164 -22 -9 -62 -27 -90 -38 -27 -12 -59 -24 -70 -26 -11 -2 -57 -14
-101 -28 -226 -68 -408 -56 -565 36 -51 30 -159 135 -180 175 -8 16 -17 30
-20 33 -11 8 -79 146 -79 159 0 6 -4 19 -10 29 -19 33 -68 168 -74 202 -3 19
-17 64 -30 100 -13 36 -34 92 -46 125 -27 75 -36 90 -68 128 -43 48 -53 57
-65 58 -55 7 -92 4 -124 -11z"/>
</g>
</svg>
